<svg width="100" height="20" viewBox="0 0 100 20" fill="none" xmlns="http://www.w3.org/2000/svg">
<path d="M98.8486 9.34996H58.4886C56.8086 8.76996 55.2186 7.82997 53.8786 6.47997C52.3786 4.97997 51.3586 3.18996 50.7986 1.28996C50.7586 1.15996 50.6986 1.04995 50.6086 0.959946C50.3386 0.689946 49.8986 0.689946 49.6286 0.959946C49.5386 1.04995 49.4686 1.16996 49.4386 1.28996C48.8886 3.18996 47.8586 4.97997 46.3586 6.47997C45.0186 7.81997 43.4286 8.75996 41.7486 9.34996H1.38861C1.06861 9.34996 0.808594 9.46995 0.808594 9.61995V10.87C0.808594 11.0199 1.06861 11.14 1.38861 11.14H41.7486C43.4286 11.72 45.0186 12.66 46.3586 14.01C47.8586 15.51 48.8786 17.3 49.4386 19.2C49.4786 19.33 49.5386 19.44 49.6286 19.53C49.8986 19.8 50.3386 19.8 50.6086 19.53C50.6986 19.44 50.7686 19.32 50.7986 19.2C51.3486 17.3 52.3786 15.51 53.8786 14.01C55.2186 12.67 56.8086 11.73 58.4886 11.14H98.8486C99.1686 11.14 99.4286 11.0199 99.4286 10.87V9.61995C99.4286 9.46995 99.1686 9.34996 98.8486 9.34996Z" fill="#171D31"/>
</svg>
